<svg width="50" height="51" viewBox="0 0 50 51" fill="none" xmlns="http://www.w3.org/2000/svg">
<path d="M0 24.8902C0 13.3926 0 7.64374 3.57187 4.07187C7.14374 0.5 12.8926 0.5 24.3902 0.5H25.6098C37.1074 0.5 42.8563 0.5 46.4281 4.07187C50 7.64374 50 13.3926 50 24.8902V26.1098C50 37.6074 50 43.3563 46.4281 46.9281C42.8563 50.5 37.1074 50.5 25.6098 50.5H24.3902C12.8926 50.5 7.14374 50.5 3.57187 46.9281C0 43.3563 0 37.6074 0 26.1098V24.8902Z" fill="#E5F4F2"/>
<path opacity="0.2" d="M15.5063 20.158C15.4338 20.2825 15.3958 20.4241 15.3962 20.5682V30.4319C15.397 30.5744 15.4353 30.7142 15.5073 30.8371C15.5793 30.9601 15.6825 31.0618 15.8064 31.1322L24.6098 36.0841C24.7284 36.1519 24.8632 36.1865 24.9999 36.1841L25.0899 25.5001L15.5063 20.158Z" fill="#009379"/>
<path d="M34.6036 30.432V20.5682C34.6028 20.4257 34.5645 20.286 34.4925 20.163C34.4205 20.0401 34.3173 19.9383 34.1934 19.8679L25.39 14.9161C25.2714 14.8476 25.1369 14.8115 24.9999 14.8115C24.8629 14.8115 24.7284 14.8476 24.6097 14.9161L15.8064 19.8679C15.6825 19.9383 15.5793 20.0401 15.5073 20.163C15.4353 20.286 15.397 20.4257 15.3962 20.5682V30.432C15.397 30.5745 15.4353 30.7142 15.5073 30.8372C15.5793 30.9601 15.6825 31.0619 15.8064 31.1322L24.6097 36.0841C24.7284 36.1526 24.8629 36.1887 24.9999 36.1887C25.1369 36.1887 25.2714 36.1526 25.39 36.0841L34.1934 31.1322C34.3173 31.0619 34.4205 30.9601 34.4925 30.8372C34.5645 30.7142 34.6028 30.5745 34.6036 30.432V30.432Z" stroke="#009379" stroke-width="1.44817" stroke-linecap="round" stroke-linejoin="round"/>
<path d="M29.9019 27.9509V22.749L20.1982 17.3969" stroke="#009379" stroke-width="1.44817" stroke-linecap="round" stroke-linejoin="round"/>
<path d="M34.4936 20.158L25.09 25.5001L15.5063 20.158" stroke="#009379" stroke-width="1.44817" stroke-linecap="round" stroke-linejoin="round"/>
<path d="M25.09 25.5001L25 36.1842" stroke="#009379" stroke-width="1.44817" stroke-linecap="round" stroke-linejoin="round"/>
</svg>
