<svg width="50" height="51" viewBox="0 0 50 51" fill="none" xmlns="http://www.w3.org/2000/svg">
<path d="M0 24.8902C0 13.3926 0 7.64374 3.57187 4.07187C7.14374 0.5 12.8926 0.5 24.3902 0.5H25.6098C37.1074 0.5 42.8563 0.5 46.4281 4.07187C50 7.64374 50 13.3926 50 24.8902V26.1098C50 37.6074 50 43.3563 46.4281 46.9281C42.8563 50.5 37.1074 50.5 25.6098 50.5H24.3902C12.8926 50.5 7.14374 50.5 3.57187 46.9281C0 43.3563 0 37.6074 0 26.1098V24.8902Z" fill="#E5F4F2"/>
<path opacity="0.2" d="M19.1678 34.5335C19.0933 34.6091 19.0045 34.6691 18.9066 34.7101C18.8087 34.7511 18.7037 34.7722 18.5975 34.7722C18.4914 34.7722 18.3863 34.7511 18.2884 34.7101C18.1906 34.6691 18.1018 34.6091 18.0273 34.5335L15.9665 32.4727C15.8909 32.3982 15.8309 32.3094 15.7899 32.2115C15.7489 32.1136 15.7278 32.0086 15.7278 31.9024C15.7278 31.7963 15.7489 31.6913 15.7899 31.5934C15.8309 31.4955 15.8909 31.4067 15.9665 31.3322L26.6006 20.6982L29.8018 23.8994L19.1678 34.5335Z" fill="#009379"/>
<path d="M33.8032 25.5V30.3018" stroke="#009379" stroke-width="1.44817" stroke-linecap="round" stroke-linejoin="round"/>
<path d="M31.4023 27.9009H36.2042" stroke="#009379" stroke-width="1.44817" stroke-linecap="round" stroke-linejoin="round"/>
<path d="M20.5981 16.6967V20.6982" stroke="#009379" stroke-width="1.44817" stroke-linecap="round" stroke-linejoin="round"/>
<path d="M18.5974 18.6974H22.5989" stroke="#009379" stroke-width="1.44817" stroke-linecap="round" stroke-linejoin="round"/>
<path d="M29.0015 31.1021V34.3033" stroke="#009379" stroke-width="1.44817" stroke-linecap="round" stroke-linejoin="round"/>
<path d="M27.4009 32.7028H30.6021" stroke="#009379" stroke-width="1.44817" stroke-linecap="round" stroke-linejoin="round"/>
<path d="M30.8449 16.4598L15.9687 31.3359C15.6562 31.6484 15.6562 32.1552 15.9687 32.4677L18.0378 34.5368C18.3503 34.8493 18.8571 34.8493 19.1696 34.5368L34.0457 19.6607C34.3583 19.3481 34.3583 18.8414 34.0457 18.5288L31.9767 16.4598C31.6641 16.1472 31.1574 16.1472 30.8449 16.4598Z" stroke="#009379" stroke-width="1.44817" stroke-linecap="round" stroke-linejoin="round"/>
<path d="M26.6006 20.6982L29.8018 23.8994" stroke="#009379" stroke-width="1.44817" stroke-linecap="round" stroke-linejoin="round"/>
</svg>
