<svg width="50" height="51" viewBox="0 0 50 51" fill="none" xmlns="http://www.w3.org/2000/svg">
<path d="M0 24.8902C0 13.3926 0 7.64374 3.57187 4.07187C7.14374 0.5 12.8926 0.5 24.3902 0.5H25.6098C37.1074 0.5 42.8563 0.5 46.4281 4.07187C50 7.64374 50 13.3926 50 24.8902V26.1098C50 37.6074 50 43.3563 46.4281 46.9281C42.8563 50.5 37.1074 50.5 25.6098 50.5H24.3902C12.8926 50.5 7.14374 50.5 3.57187 46.9281C0 43.3563 0 37.6074 0 26.1098V24.8902Z" fill="#E5F4F2"/>
<path opacity="0.2" d="M33.003 16.6967H29.8018C29.3598 16.6967 29.0015 17.055 29.0015 17.497V20.6982C29.0015 21.1402 29.3598 21.4985 29.8018 21.4985H33.003C33.445 21.4985 33.8033 21.1402 33.8033 20.6982V17.497C33.8033 17.055 33.445 16.6967 33.003 16.6967Z" fill="#009379"/>
<path opacity="0.2" d="M16.9968 16.742H20.1981C20.6151 16.742 20.9531 17.08 20.9531 17.497V20.6982C20.9531 21.1152 20.6151 21.4533 20.1981 21.4533H16.9968C16.5798 21.4533 16.2418 21.1152 16.2418 20.6982V17.497C16.2418 17.08 16.5798 16.742 16.9968 16.742Z" fill="#009379" stroke="#009379" stroke-width="0.0905107"/>
<path opacity="0.2" d="M29.8018 29.5467H33.003C33.42 29.5467 33.758 29.8848 33.758 30.3018V33.503C33.758 33.92 33.42 34.258 33.003 34.258H29.8018C29.3848 34.258 29.0467 33.92 29.0467 33.503V30.3018C29.0467 29.8848 29.3848 29.5467 29.8018 29.5467Z" fill="#009379" stroke="#009379" stroke-width="0.0905107"/>
<path opacity="0.2" d="M16.9968 29.5467H20.1981C20.6151 29.5467 20.9531 29.8848 20.9531 30.3018V33.503C20.9531 33.92 20.6151 34.258 20.1981 34.258H16.9968C16.5798 34.258 16.2418 33.92 16.2418 33.503V30.3018C16.2418 29.8848 16.5798 29.5467 16.9968 29.5467Z" fill="#009379" stroke="#009379" stroke-width="0.0905107"/>
<path d="M33.003 16.6967H29.8018C29.3598 16.6967 29.0015 17.055 29.0015 17.497V20.6982C29.0015 21.1402 29.3598 21.4985 29.8018 21.4985H33.003C33.445 21.4985 33.8033 21.1402 33.8033 20.6982V17.497C33.8033 17.055 33.445 16.6967 33.003 16.6967Z" stroke="#009379" stroke-width="1.44817" stroke-linecap="round" stroke-linejoin="round"/>
<path d="M20.1981 16.6967H16.9968C16.5548 16.6967 16.1965 17.055 16.1965 17.497V20.6982C16.1965 21.1402 16.5548 21.4985 16.9968 21.4985H20.1981C20.6401 21.4985 20.9984 21.1402 20.9984 20.6982V17.497C20.9984 17.055 20.6401 16.6967 20.1981 16.6967Z" stroke="#009379" stroke-width="1.44817" stroke-linecap="round" stroke-linejoin="round"/>
<path d="M33.003 29.5015H29.8018C29.3598 29.5015 29.0015 29.8598 29.0015 30.3018V33.503C29.0015 33.945 29.3598 34.3033 29.8018 34.3033H33.003C33.445 34.3033 33.8033 33.945 33.8033 33.503V30.3018C33.8033 29.8598 33.445 29.5015 33.003 29.5015Z" stroke="#009379" stroke-width="1.44817" stroke-linecap="round" stroke-linejoin="round"/>
<path d="M20.1981 29.5015H16.9968C16.5548 29.5015 16.1965 29.8598 16.1965 30.3018V33.503C16.1965 33.945 16.5548 34.3033 16.9968 34.3033H20.1981C20.6401 34.3033 20.9984 33.945 20.9984 33.503V30.3018C20.9984 29.8598 20.6401 29.5015 20.1981 29.5015Z" stroke="#009379" stroke-width="1.44817" stroke-linecap="round" stroke-linejoin="round"/>
<path d="M18.5974 29.5016V21.4985" stroke="#009379" stroke-width="1.44817" stroke-linecap="round" stroke-linejoin="round"/>
<path d="M29.0016 31.9025H20.9985" stroke="#009379" stroke-width="1.44817" stroke-linecap="round" stroke-linejoin="round"/>
<path d="M31.4023 21.4985V29.5016" stroke="#009379" stroke-width="1.44817" stroke-linecap="round" stroke-linejoin="round"/>
<path d="M20.9985 19.0975H29.0016" stroke="#009379" stroke-width="1.44817" stroke-linecap="round" stroke-linejoin="round"/>
</svg>
