<svg width="19" height="20" viewBox="0 0 19 20" fill="none" xmlns="http://www.w3.org/2000/svg">
<path d="M5.67187 10.1002C6.44364 11.6939 7.73239 12.9794 9.32812 13.7471C9.44583 13.8028 9.57603 13.8269 9.70589 13.817C9.83575 13.8072 9.96081 13.7637 10.0687 13.6908L12.4125 12.1252C12.516 12.0549 12.6357 12.0121 12.7603 12.0006C12.8849 11.9891 13.0104 12.0094 13.125 12.0596L17.5125 13.9439C17.6625 14.0063 17.7877 14.1163 17.869 14.2569C17.9504 14.3975 17.9832 14.561 17.9625 14.7221C17.8234 15.8074 17.2937 16.805 16.4723 17.528C15.6509 18.251 14.5943 18.6499 13.5 18.6502C10.1185 18.6502 6.87548 17.3069 4.48439 14.9158C2.0933 12.5247 0.75 9.28169 0.75 5.90018C0.750247 4.80592 1.1492 3.74925 1.87221 2.92789C2.59522 2.10652 3.59274 1.57674 4.67812 1.43768C4.83922 1.41698 5.00266 1.44982 5.14326 1.53113C5.28386 1.61245 5.39384 1.73772 5.45625 1.88768L7.34062 6.28455C7.38963 6.39738 7.41013 6.52052 7.40032 6.64314C7.39051 6.76576 7.35069 6.88408 7.28437 6.98768L5.71875 9.36893C5.64905 9.47663 5.60814 9.60041 5.59993 9.72844C5.59172 9.85647 5.61649 9.98446 5.67187 10.1002Z" stroke="#009379" stroke-width="1.5" stroke-linecap="round" stroke-linejoin="round"/>
</svg>
